<?xml version="1.0" standalone="no"?>
<!DOCTYPE svg PUBLIC "-//W3C//DTD SVG 20010904//EN"
 "http://www.w3.org/TR/2001/REC-SVG-20010904/DTD/svg10.dtd">
<svg version="1.0" xmlns="http://www.w3.org/2000/svg"
 width="509.000000pt" height="339.000000pt" viewBox="0 0 509.000000 339.000000"
 preserveAspectRatio="xMidYMid meet">

<g transform="translate(0.000000,339.000000) scale(0.100000,-0.100000)"
fill="#000000" stroke="none">
<path d="M2285 2700 c-11 -5 -134 -50 -274 -99 -154 -54 -263 -98 -277 -112
-14 -13 -29 -39 -35 -58 -9 -32 -4 -59 51 -246 58 -195 79 -251 81 -214 0 7 5
3 11 -11 10 -24 10 -24 28 20 32 82 33 88 10 95 -11 4 -18 11 -15 16 4 5 0 9
-7 9 -7 0 3 13 22 30 19 16 43 36 53 45 9 8 17 22 17 31 0 13 -6 12 -35 -6
-19 -12 -43 -20 -52 -18 -13 3 -6 10 24 26 23 12 49 22 58 22 8 0 15 9 15 20
0 22 63 214 80 243 14 23 9 22 -60 -13 -33 -16 -67 -30 -75 -30 -18 0 -96 -40
-107 -55 -4 -5 -4 -13 -2 -17 3 -4 -2 -18 -10 -30 -14 -20 -16 -21 -16 -4 0
34 52 124 79 136 l26 12 -20 -22 -20 -22 40 17 c22 10 69 29 105 42 63 22 63
23 20 17 -25 -3 -54 -8 -65 -10 -19 -5 -19 -4 -2 6 10 7 45 13 77 15 40 3 79
14 122 35 46 23 57 25 39 10 -13 -11 -18 -20 -12 -20 32 0 277 54 286 62 7 8
6 8 -4 3 -11 -6 -13 -3 -9 13 4 13 -2 27 -16 40 -24 23 -101 35 -131 22z m13
-87 c-10 -2 -26 -2 -35 0 -10 3 -2 5 17 5 19 0 27 -2 18 -5z m-581 -245 c-3
-8 -6 -5 -6 6 -1 11 2 17 5 13 3 -3 4 -12 1 -19z m22 -68 c0 -9 -4 -8 -9 5 -5
11 -9 27 -9 35 0 9 4 8 9 -5 5 -11 9 -27 9 -35z m101 -10 c0 -10 47 -26 67
-22 6 1 14 -2 17 -7 11 -16 -14 -23 -42 -12 -15 6 -40 15 -57 21 -23 9 -26 13
-15 20 19 12 30 12 30 0z m-72 -90 c0 -8 -6 1 -13 20 -7 19 -13 42 -13 50 0 8
6 -1 13 -20 7 -19 13 -42 13 -50z m21 -70 c0 -9 -4 -8 -9 5 -5 11 -9 27 -9 35
0 9 4 8 9 -5 5 -11 9 -27 9 -35z"/>
<path d="M2610 2571 c0 -18 18 -21 30 -6 10 13 9 15 -9 15 -11 0 -21 -4 -21
-9z"/>
<path d="M3041 2515 c-8 -28 -17 -42 -26 -39 -9 4 -11 -3 -8 -23 4 -22 2 -25
-6 -13 -9 12 -11 9 -12 -15 l-1 -30 -11 28 c-20 50 -28 28 -22 -60 5 -82 5
-86 -8 -57 -8 17 -22 34 -31 37 -14 6 -15 3 -5 -16 7 -12 14 -33 15 -47 2 -14
8 -38 13 -55 l9 -30 10 25 11 25 0 -27 c1 -16 -4 -28 -10 -28 -6 0 -8 -9 -4
-21 5 -15 3 -20 -6 -17 -8 3 -14 13 -15 24 -2 31 -15 64 -25 64 -6 0 -6 -7 1
-19 16 -31 13 -46 -7 -30 -11 10 -14 10 -9 2 5 -9 -1 -13 -19 -13 -40 0 -64
-17 -60 -41 3 -12 2 -19 -2 -15 -4 3 -14 -1 -24 -10 -9 -8 -26 -17 -36 -18
-10 -2 -19 -13 -21 -26 -4 -23 -4 -23 29 4 36 31 50 21 25 -16 -9 -12 -16 -30
-16 -40 0 -13 -8 -18 -30 -18 -27 0 -30 -3 -30 -32 0 -23 3 -29 9 -19 5 8 11
9 15 3 4 -7 15 -6 34 4 25 13 27 12 33 -9 3 -12 1 -25 -5 -29 -7 -5 -6 -8 4
-9 8 0 3 -6 -11 -12 -23 -10 -25 -15 -17 -37 l9 -25 16 29 c12 22 17 26 24 15
7 -12 9 -12 9 1 0 10 5 7 16 -8 8 -12 22 -22 30 -22 12 0 12 4 -3 26 -17 27
-17 27 6 15 18 -10 25 -10 37 0 13 10 17 10 24 0 6 -11 10 -9 19 7 7 14 8 23
1 27 -16 10 -2 24 18 18 10 -2 24 3 31 11 8 9 10 16 6 16 -4 0 -2 7 5 15 8 10
21 13 33 9 16 -5 19 -3 13 11 -5 15 -4 16 9 5 13 -11 14 -10 9 3 -10 28 6 40
27 21 24 -21 25 -11 2 16 -10 11 -18 24 -18 28 -1 4 -7 18 -14 30 -10 19 -18
22 -38 17 -18 -4 -24 -2 -20 7 2 7 9 12 13 11 5 -1 23 -4 39 -8 l30 -6 -32 16
c-27 14 -31 20 -23 35 8 15 6 19 -13 22 l-24 3 25 55 c27 61 43 52 18 -9 -14
-36 -14 -40 1 -45 9 -4 21 -1 26 6 9 13 6 -1 -9 -36 -3 -8 3 -16 15 -19 12 -3
19 -1 16 3 -3 5 4 15 16 23 20 14 20 16 2 25 -17 10 -17 11 1 18 17 7 17 8 -5
20 -13 7 -18 13 -11 14 6 0 12 6 12 13 0 7 11 29 25 50 14 20 23 37 19 37 -3
0 8 16 25 35 17 20 31 39 31 43 0 4 -7 -1 -14 -11 -10 -13 -15 -15 -19 -5 -5
15 -17 7 -21 -14 -3 -20 -87 -170 -93 -165 -2 3 3 19 11 36 18 35 21 71 5 71
-6 0 -2 16 10 36 14 24 21 52 21 88 0 54 -20 100 -34 77 -5 -8 -12 -9 -20 -2
-9 7 -15 -1 -25 -34z m26 -161 c-3 -3 -12 -4 -19 -1 -8 3 -5 6 6 6 11 1 17 -2
13 -5z m-77 -49 c0 -8 -4 -15 -10 -15 -5 0 -7 7 -4 15 4 8 8 15 10 15 2 0 4
-7 4 -15z m40 -141 c0 -2 -5 -13 -12 -23 -9 -15 -16 -17 -30 -10 -14 8 -16 13
-6 28 9 15 48 19 48 5z m-132 -3 c2 0 -3 -8 -12 -16 -24 -25 -60 -17 -49 10 4
11 38 14 61 6z m70 -44 c20 -15 14 -34 -10 -32 -13 1 -30 -1 -38 -5 -12 -6
-15 -1 -17 26 -1 32 0 34 25 28 15 -4 33 -11 40 -17z m-78 -19 c0 -29 -9 -42
-37 -57 -35 -18 -45 -14 -41 22 2 17 7 30 11 27 5 -3 13 3 18 13 15 26 49 22
49 -5z m174 3 c21 -8 30 -51 10 -51 -6 0 -33 -21 -58 -47 -26 -26 -46 -40 -47
-32 0 12 -1 12 -6 0 -3 -8 -13 7 -22 35 -19 55 -18 62 4 44 13 -11 14 -10 10
2 -4 10 1 17 13 20 25 7 39 -2 51 -32 8 -20 10 -21 10 -6 1 11 -7 28 -16 38
-15 17 -15 20 -3 28 17 11 28 11 54 1z m-149 -88 c-4 -18 -2 -23 6 -17 9 5 10
2 5 -12 -5 -10 -9 -25 -9 -31 0 -16 -40 -29 -45 -15 -2 6 -9 9 -17 6 -13 -5
-55 32 -55 49 0 5 11 7 25 5 13 -3 23 -2 20 2 -5 7 25 35 46 42 22 8 31 -2 24
-29z m-5 -113 c0 -5 -5 -10 -11 -10 -5 0 -7 5 -4 10 3 6 8 10 11 10 2 0 4 -4
4 -10z"/>
<path d="M2310 2517 c-80 -16 -149 -32 -153 -36 -5 -5 10 -64 32 -131 22 -68
38 -127 35 -132 -10 -16 20 -90 40 -98 18 -8 19 -9 3 -9 -13 -1 -17 -7 -13
-18 2 -10 10 -37 17 -60 11 -40 20 -48 44 -43 6 1 7 -2 3 -6 -4 -4 -4 -12 1
-18 13 -16 17 -59 7 -74 -11 -19 2 -62 19 -62 8 0 15 -9 15 -19 0 -11 5 -23
10 -26 13 -8 13 -45 0 -45 -5 0 -1 -13 8 -29 19 -34 30 -34 12 -1 -6 12 -9 24
-6 27 2 3 17 -19 32 -49 24 -48 25 -51 5 -34 -11 11 -21 14 -21 8 0 -29 55
-42 300 -71 140 -17 267 -33 283 -36 15 -2 27 0 27 5 0 5 -31 12 -70 16 -38 3
-67 10 -64 15 3 5 -2 6 -11 3 -9 -4 -59 -1 -113 5 -151 18 -151 18 -149 49 2
22 -4 28 -31 38 -25 8 -38 21 -53 53 -10 24 -19 49 -19 56 0 13 30 89 57 143
12 24 14 35 5 41 -12 7 -42 111 -42 145 0 17 5 14 29 -14 16 -19 32 -32 37
-27 4 4 2 7 -4 7 -7 0 -12 8 -12 18 0 9 -14 46 -31 82 -22 45 -32 82 -34 120
-3 93 -4 97 -15 80 -7 -11 -10 1 -10 41 0 31 -6 70 -12 85 l-13 29 -145 -28z
m74 -43 c9 -3 16 -14 16 -24 0 -9 9 -27 20 -40 22 -26 27 -80 8 -80 -9 0 -8
-4 2 -10 13 -8 12 -10 -3 -10 -11 0 -15 -4 -11 -12 5 -8 2 -9 -10 -5 -10 4
-27 7 -39 8 -20 1 -20 2 3 9 24 8 24 8 -7 9 -22 1 -33 -4 -35 -16 -2 -10 -8 4
-12 31 -5 31 -4 52 3 59 6 6 11 23 11 39 0 15 8 31 18 37 21 13 17 12 36 5z
m-54 -231 c-21 -84 -71 -155 -56 -81 6 28 50 108 60 108 2 0 0 -12 -4 -27z
m126 -35 c8 -13 7 -68 -1 -77 -8 -8 -45 32 -45 49 0 16 18 40 31 40 4 0 11 -5
15 -12z m54 -114 c0 -8 -5 -12 -10 -9 -6 4 -8 11 -5 16 9 14 15 11 15 -7z
m-210 -50 c0 -8 -4 -12 -10 -9 -5 3 -10 10 -10 16 0 5 5 9 10 9 6 0 10 -7 10
-16z m157 10 c-3 -3 -12 -4 -19 -1 -8 3 -5 6 6 6 11 1 17 -2 13 -5z m25 -61
c10 -9 18 -22 18 -30 0 -9 -6 -7 -20 7 -11 11 -27 20 -36 20 -8 0 -13 4 -9 9
3 5 -3 12 -12 14 -10 2 -5 3 11 1 16 -3 38 -12 48 -21z m-118 -8 c-4 -8 -11
-15 -16 -15 -6 0 -5 6 2 15 7 8 14 15 16 15 2 0 1 -7 -2 -15z m103 -75 c2 -22
-12 -27 -23 -9 -5 9 5 22 21 29 1 0 1 -9 2 -20z m43 -1 c0 -5 -4 -9 -10 -9 -5
0 -10 7 -10 16 0 8 5 12 10 9 6 -3 10 -10 10 -16z m-86 -10 c-3 -5 -15 -8 -27
-8 -17 1 -18 2 -4 6 9 2 15 9 12 14 -3 5 1 6 9 3 9 -3 13 -10 10 -15z m29 -34
c-3 -9 -8 -14 -10 -11 -3 3 -2 9 2 15 9 16 15 13 8 -4z m-38 -45 c3 -5 2 -10
-4 -10 -5 0 -13 5 -16 10 -3 6 -2 10 4 10 5 0 13 -4 16 -10z m35 -54 c0 -27
-15 -42 -25 -26 -8 13 3 50 16 50 5 0 9 -11 9 -24z m110 -96 c0 -5 -7 -10 -15
-10 -8 0 -15 5 -15 10 0 6 7 10 15 10 8 0 15 -4 15 -10z m-73 -25 c0 -8 -9
-15 -21 -15 -20 0 -20 0 0 15 10 8 19 15 20 15 0 0 1 -7 1 -15z m97 -10 c-4
-9 -18 -14 -38 -14 -30 2 -30 2 -3 6 15 2 25 9 22 14 -4 5 1 9 9 9 10 0 13 -6
10 -15z"/>
<path d="M2340 2411 c0 -5 9 -7 20 -4 11 3 20 7 20 9 0 2 -9 4 -20 4 -11 0
-20 -4 -20 -9z"/>
<path d="M2331 2376 c-9 -10 -8 -15 4 -20 9 -3 14 -2 10 3 -3 5 0 11 7 13 8 3
9 6 1 11 -6 4 -16 1 -22 -7z"/>
<path d="M3177 2483 c-27 -45 -31 -59 -12 -45 11 8 48 83 43 88 -2 2 -16 -18
-31 -43z"/>
<path d="M2087 2473 c-4 -6 -22 -59 -42 -118 -19 -60 -41 -115 -48 -123 -16
-19 -58 -135 -51 -141 3 -3 9 1 14 9 8 13 10 12 10 -2 0 -11 -7 -18 -18 -18
-30 0 -67 -119 -67 -217 0 -81 0 -82 20 -64 45 41 112 54 158 30 29 -15 77
-60 77 -73 0 -5 12 -22 27 -38 28 -29 27 -51 -1 -23 -15 15 -16 15 -16 -5 0
-18 -4 -21 -27 -16 -16 2 -74 10 -130 16 l-102 12 -27 52 c-17 33 -24 41 -20
23 5 -19 3 -26 -4 -22 -5 3 -10 2 -10 -4 0 -16 18 -22 23 -9 4 9 6 7 6 -3 2
-37 37 -51 183 -70 135 -17 249 -24 220 -12 -10 4 -9 8 5 19 17 12 16 15 -12
39 l-30 27 31 -21 c36 -24 44 -20 44 25 0 23 -5 34 -17 37 -15 4 -16 5 -2 6
25 2 30 57 12 124 -12 45 -18 55 -25 43 -5 -9 -13 -14 -19 -11 -15 10 -10 -15
6 -31 8 -9 19 -12 25 -9 5 3 10 0 10 -9 0 -8 3 -22 7 -32 4 -11 3 -15 -4 -11
-7 4 -21 -13 -34 -40 -23 -48 -35 -63 -54 -63 -5 1 -3 6 5 13 19 15 70 101 70
117 0 7 -8 10 -20 7 -11 -3 -18 -2 -15 3 3 4 -2 11 -11 14 -12 4 -15 15 -12
37 3 20 0 33 -9 36 -19 7 3 33 28 33 11 0 19 7 19 18 0 15 -2 15 -11 2 -8 -12
-10 -10 -5 10 7 34 -14 105 -26 88 -6 -8 -7 -3 -3 15 4 19 2 26 -5 22 -7 -4
-9 3 -5 22 5 19 4 24 -3 15 -13 -18 -32 25 -75 167 -19 62 -37 109 -40 104z
m6 -400 c-7 -2 -21 -2 -30 0 -10 3 -4 5 12 5 17 0 24 -2 18 -5z m-105 -10
c-10 -2 -26 -2 -35 0 -10 3 -2 5 17 5 19 0 27 -2 18 -5z m185 -111 c-3 -12 -9
-22 -14 -22 -12 0 -11 7 2 32 13 25 20 19 12 -10z m-23 -43 c0 -5 -7 -9 -15
-9 -8 0 -15 7 -15 15 0 9 6 12 15 9 8 -4 15 -10 15 -15z m-209 -5 c7 -9 22
-20 34 -24 20 -9 20 -9 -1 -9 -11 -1 -30 10 -42 24 -12 14 -18 25 -13 25 5 0
15 -7 22 -16z m149 -3 c0 -15 -38 -56 -45 -49 -9 9 21 58 35 58 6 0 10 -4 10
-9z m95 -41 c9 -16 12 -30 9 -30 -13 0 -44 33 -44 47 0 23 19 14 35 -17z m45
26 c0 -2 -7 -7 -16 -10 -8 -3 -12 -2 -9 4 6 10 25 14 25 6z m-3 -222 c-3 -3
-12 -4 -19 -1 -8 3 -5 6 6 6 11 1 17 -2 13 -5z"/>
<path d="M2550 2395 c0 -5 14 -30 30 -55 16 -25 30 -40 30 -35 0 6 -14 30 -30
55 -16 25 -30 41 -30 35z"/>
<path d="M2721 2339 c-6 -18 -11 -37 -10 -43 0 -6 7 7 15 28 8 22 12 41 10 43
-2 2 -9 -10 -15 -28z"/>
<path d="M3174 2314 c-18 -14 -18 -14 6 -3 31 14 36 19 24 19 -6 0 -19 -7 -30
-16z"/>
<path d="M1217 2216 c-16 -13 -16 -15 -2 -30 10 -9 12 -16 5 -16 -7 0 -5 -6 4
-16 9 -8 16 -29 16 -45 0 -32 7 -35 43 -18 29 13 27 50 -3 42 -27 -7 -34 14
-8 28 19 10 24 8 41 -12 l19 -23 -7 39 c-9 48 -21 66 -41 58 -14 -5 -21 -25
-6 -20 4 1 8 -1 10 -5 5 -17 1 -20 -12 -9 -8 6 -19 10 -26 9 -20 -5 -23 20 -3
25 12 3 13 5 3 6 -8 0 -23 -6 -33 -13z"/>
<path d="M1913 2135 c-3 -9 -3 -18 -1 -21 3 -3 8 4 11 16 6 23 -1 27 -10 5z"/>
<path d="M3558 2113 c-10 -2 -18 -11 -18 -19 0 -8 -4 -12 -10 -9 -5 3 -10 1
-10 -5 0 -11 7 -14 54 -25 21 -4 26 -9 17 -14 -10 -6 -8 -10 5 -15 17 -7 34 8
34 29 0 6 -15 16 -32 23 -27 10 -30 14 -18 22 8 5 20 10 25 10 6 0 4 -4 -3 -9
-10 -6 -8 -10 9 -14 29 -8 50 10 29 23 -15 10 -52 11 -82 3z"/>
<path d="M3485 2080 c-3 -5 -1 -10 4 -10 6 0 11 5 11 10 0 6 -2 10 -4 10 -3 0
-8 -4 -11 -10z"/>
<path d="M3710 2054 c0 -9 5 -12 13 -8 10 6 10 4 0 -7 -19 -19 -16 -59 3 -59
13 0 13 -2 2 -13 -7 -8 -20 -16 -28 -20 -8 -3 -3 -5 12 -4 15 1 24 5 22 9 -3
4 1 8 9 8 11 0 12 10 7 43 -3 23 -10 48 -14 55 -10 17 -26 15 -26 -4z"/>
<path d="M1274 2044 c3 -9 6 -20 6 -25 0 -5 11 -3 25 3 35 16 32 38 -6 38 -24
0 -30 -3 -25 -16z"/>
<path d="M3484 2053 c10 -11 36 -12 36 -2 0 5 -10 9 -22 9 -12 0 -18 -3 -14
-7z"/>
<path d="M2640 2003 c0 -58 14 -71 24 -22 7 38 7 80 -1 60 -5 -11 -7 -11 -14
0 -6 9 -9 -5 -9 -38z"/>
<path d="M1371 2011 c-7 -5 -9 -10 -5 -12 5 -2 25 -35 44 -72 19 -37 43 -77
52 -87 18 -19 38 -62 38 -81 0 -5 -12 -9 -27 -8 -16 0 -22 3 -15 6 10 4 7 12
-11 32 -13 14 -31 40 -38 56 -11 22 -20 29 -37 27 -12 -2 -21 0 -20 5 1 4 -3
18 -10 29 -10 19 -9 23 8 27 11 3 20 10 20 16 0 8 -6 9 -19 1 -27 -14 -41 -13
-41 5 0 8 12 18 26 21 36 9 16 23 -24 17 -29 -5 -33 -8 -27 -27 4 -11 9 -38
12 -58 3 -21 9 -35 14 -32 10 6 12 -30 3 -63 -4 -13 -10 -20 -15 -18 -4 3 -6
13 -3 23 5 16 5 16 -6 0 -6 -10 -22 -18 -34 -18 -32 0 -43 -28 -13 -34 24 -5
465 -56 482 -56 21 1 -21 20 -45 20 -24 1 -24 1 -5 15 16 13 19 27 19 78 -1
91 -21 131 -78 152 -56 22 -89 14 -133 -30 l-33 -33 -25 32 c-14 18 -25 38
-25 44 0 7 -5 12 -11 12 -5 0 -7 5 -4 10 8 12 4 12 -14 1z m293 -249 c-20 -38
-29 -33 -42 26 -11 46 -7 55 8 20 8 -20 9 -18 11 17 1 39 2 39 9 10 l8 -30 2
35 2 35 10 -40 c7 -32 6 -47 -8 -73z m-84 84 c0 -2 -8 -10 -17 -17 -16 -13
-17 -12 -4 4 13 16 21 21 21 13z m-20 -102 c0 -14 -20 -1 -21 14 0 10 -3 12
-6 5 -2 -7 -9 -13 -14 -13 -5 0 -3 11 3 25 l11 25 14 -26 c7 -15 13 -28 13
-30z m-134 31 c17 -17 7 -19 -34 -8 -18 4 -20 8 -10 14 19 12 27 11 44 -6z"/>
<path d="M3530 2016 c0 -3 9 -10 20 -16 11 -6 20 -8 20 -6 0 3 -9 10 -20 16
-11 6 -20 8 -20 6z"/>
<path d="M3450 1992 c0 -11 8 -26 18 -34 28 -26 135 -76 172 -81 19 -3 42 -8
51 -11 17 -7 47 19 35 31 -3 3 -22 2 -41 -4 -20 -6 -35 -7 -35 -2 0 5 -6 9
-12 9 -22 0 -138 59 -138 70 0 5 -7 10 -15 10 -8 0 -15 7 -15 15 0 8 -4 15
-10 15 -5 0 -10 -8 -10 -18z"/>
<path d="M2230 1990 c-9 -6 -10 -10 -3 -10 6 0 15 5 18 10 8 12 4 12 -15 0z"/>
<path d="M3510 1994 c0 -7 130 -67 135 -63 2 3 -28 18 -66 36 -38 17 -69 29
-69 27z"/>
<path d="M3590 1980 c8 -5 20 -10 25 -10 6 0 3 5 -5 10 -8 5 -19 10 -25 10 -5
0 -3 -5 5 -10z"/>
<path d="M3410 1959 c0 -11 5 -17 10 -14 6 3 10 13 10 21 0 8 -4 14 -10 14 -5
0 -10 -9 -10 -21z"/>
<path d="M1698 1948 c42 -45 56 -132 27 -162 -11 -11 -12 -17 -4 -22 32 -19
53 90 28 139 -15 30 -50 67 -62 67 -6 0 -1 -10 11 -22z"/>
<path d="M2290 1961 c0 -6 4 -12 8 -15 5 -3 9 1 9 9 0 8 -4 15 -9 15 -4 0 -8
-4 -8 -9z"/>
<path d="M3440 1951 c0 -5 11 -16 25 -25 14 -9 25 -15 25 -13 0 2 -11 13 -25
25 -14 12 -25 18 -25 13z"/>
<path d="M3427 1904 c4 -11 2 -15 -4 -11 -7 5 -9 0 -6 -13 3 -11 9 -20 14 -20
5 0 17 -8 28 -19 18 -18 18 -18 16 9 -2 33 -10 47 -35 60 -16 9 -18 8 -13 -6z"/>
<path d="M3514 1896 c11 -9 24 -16 30 -16 12 0 7 5 -24 19 -24 11 -24 11 -6
-3z"/>
<path d="M3387 1894 c-4 -4 -7 -14 -7 -23 0 -11 3 -12 11 -4 6 6 10 16 7 23
-2 6 -7 8 -11 4z"/>
<path d="M1820 1855 c-12 -20 -20 -39 -16 -42 3 -3 9 3 12 13 4 10 14 27 22
37 8 9 13 20 10 23 -3 3 -16 -11 -28 -31z"/>
<path d="M3688 1843 c7 -3 16 -2 19 1 4 3 -2 6 -13 5 -11 0 -14 -3 -6 -6z"/>
<path d="M2312 1810 c0 -14 2 -19 5 -12 2 6 2 18 0 25 -3 6 -5 1 -5 -13z"/>
<path d="M2794 1793 c3 -8 6 -24 6 -36 1 -18 2 -19 9 -7 18 30 17 53 -2 56
-13 2 -17 -2 -13 -13z"/>
<path d="M1810 1790 c0 -5 5 -10 10 -10 6 0 10 5 10 10 0 6 -4 10 -10 10 -5 0
-10 -4 -10 -10z"/>
<path d="M3496 1788 c5 -7 3 -8 -6 -3 -7 4 -16 2 -20 -5 -7 -11 -23 -11 -92
-1 -45 7 -94 11 -108 8 -15 -2 -7 -5 22 -6 26 0 49 -5 53 -10 3 -5 19 -12 35
-16 16 -4 44 -17 63 -29 26 -18 45 -22 88 -21 88 4 86 4 69 15 -11 7 -5 8 20
4 22 -3 30 -2 23 3 -10 7 -10 13 2 29 20 27 18 36 -4 22 -11 -7 -17 -16 -14
-21 4 -6 -14 -7 -43 -3 -41 5 -45 4 -24 -5 24 -11 24 -11 5 -19 l-20 -7 20 -5
c17 -5 17 -6 2 -7 -10 0 -21 7 -24 17 -4 9 -13 22 -21 28 -12 9 -13 13 -2 19
9 5 11 4 6 -3 -8 -14 3 -15 22 -3 10 6 5 11 -19 20 -40 14 -42 14 -33 -1z"/>
<path d="M3090 1770 c0 -13 5 -18 15 -14 12 5 13 10 4 20 -15 19 -19 18 -19
-6z"/>
<path d="M3662 1770 c-7 -12 -8 -20 -2 -20 5 0 10 5 10 11 0 5 4 8 9 5 13 -8
71 5 71 15 0 5 -17 9 -38 9 -26 0 -41 -6 -50 -20z"/>
<path d="M2331 1764 c0 -11 3 -14 6 -6 3 7 2 16 -1 19 -3 4 -6 -2 -5 -13z"/>
<path d="M3178 1773 c12 -2 32 -2 45 0 12 2 2 4 -23 4 -25 0 -35 -2 -22 -4z"/>
<path d="M1950 1759 c0 -5 5 -7 10 -4 6 3 10 8 10 11 0 2 -4 4 -10 4 -5 0 -10
-5 -10 -11z"/>
<path d="M1230 1748 c0 -11 18 -14 310 -48 239 -28 746 -89 1270 -154 116 -14
199 -20 204 -15 6 5 7 9 3 9 -4 0 -135 15 -290 34 -155 18 -298 34 -317 35
-19 1 -53 6 -75 11 l-40 8 35 1 c44 2 62 13 55 33 -12 30 -56 28 -87 -3 -25
-25 -35 -28 -71 -23 -228 27 -298 34 -335 34 -25 0 -41 4 -37 10 3 5 -12 7
-40 3 -39 -4 -44 -3 -39 11 4 9 1 16 -6 16 -9 0 -9 4 1 18 11 14 10 13 -9 -2
-23 -20 -30 -32 -12 -21 6 3 10 1 10 -5 0 -6 -14 -8 -37 -4 -125 19 -493 58
-493 52z"/>
<path d="M3698 1743 c7 -3 16 -2 19 1 4 3 -2 6 -13 5 -11 0 -14 -3 -6 -6z"/>
<path d="M3690 1719 c-35 -12 -43 -16 -20 -12 40 7 112 32 90 31 -8 0 -40 -8
-70 -19z"/>
<path d="M1325 1622 c34 -97 35 -112 9 -112 -23 0 -16 -20 12 -30 14 -6 42
-10 62 -10 25 0 33 -3 23 -9 -11 -7 -9 -22 12 -82 14 -41 26 -66 26 -57 2 34
31 6 46 -45 19 -63 19 -67 0 -67 -8 0 -15 -4 -15 -10 0 -5 10 -9 22 -7 14 1
23 -4 26 -15 2 -11 -3 -18 -12 -18 -9 0 -16 4 -16 9 0 5 -15 8 -32 6 -18 -1
-25 0 -15 2 9 2 17 7 17 9 0 15 -95 274 -101 274 -3 0 14 -55 38 -121 44 -121
47 -149 18 -149 -18 0 -20 -16 -4 -26 6 -4 66 -14 132 -23 l121 -17 46 -138
c26 -76 41 -130 33 -120 -7 10 -30 72 -51 136 -22 69 -42 118 -50 118 -9 0 -9
-7 3 -30 10 -19 11 -30 5 -30 -6 0 -16 14 -21 30 -6 17 -15 30 -20 30 -5 0 -4
-11 1 -24 6 -17 5 -26 -2 -28 -11 -4 21 -115 50 -173 13 -26 13 -28 0 -18 -8
7 -27 50 -43 95 -15 46 -34 88 -41 94 -7 5 -16 22 -19 37 -4 15 -11 27 -15 27
-4 0 -2 -18 3 -40 12 -41 3 -65 -14 -40 -15 22 -2 -22 28 -95 36 -88 37 -92
20 -70 -9 11 -35 73 -58 138 -23 64 -43 116 -45 114 -2 -2 16 -61 39 -132 61
-183 43 -174 497 -240 96 -14 229 -34 295 -45 115 -18 235 -33 375 -45 36 -3
98 -10 139 -16 41 -5 75 -8 75 -7 1 2 7 13 14 25 19 35 15 40 -28 41 -22 1
-45 3 -52 4 -8 2 -12 -6 -11 -20 2 -13 -1 -21 -7 -17 -6 3 -10 15 -10 25 0 11
-9 24 -20 30 -11 6 -26 23 -34 37 l-14 27 -6 -30 c-3 -16 -4 -39 -2 -52 3 -13
1 -20 -5 -17 -5 4 -9 35 -9 71 l0 64 -40 0 -40 0 -1 -62 c-1 -35 -3 -54 -6
-43 -9 44 -12 45 -38 19 -38 -38 -42 -22 -6 30 37 54 38 73 6 134 -39 75 -45
81 -45 49 0 -16 4 -26 10 -22 11 6 13 -12 12 -82 0 -51 -21 -120 -31 -104 -5
8 -13 6 -27 -5 -10 -8 -13 -13 -6 -9 6 3 12 1 12 -4 0 -6 -7 -11 -16 -11 -11
0 -14 5 -10 16 3 9 6 45 6 80 0 40 4 63 10 59 5 -3 8 -21 5 -40 -2 -19 1 -37
6 -41 6 -4 9 14 8 50 -1 30 -6 53 -11 50 -4 -3 -8 0 -8 6 0 6 -4 8 -10 5 -6
-3 -10 4 -10 17 0 35 -11 68 -23 68 -7 0 -8 -43 -4 -127 3 -72 1 -119 -3 -108
-5 11 -9 71 -9 133 l-1 112 -27 0 c-14 0 -24 2 -21 5 3 3 47 0 97 -6 50 -7 86
-16 80 -20 -8 -4 0 -13 20 -23 26 -14 31 -14 31 -2 0 8 -6 17 -12 19 -7 3 3 5
22 5 19 0 29 -2 23 -5 -7 -2 -13 -13 -13 -24 0 -19 35 -77 55 -91 11 -8 22 27
24 75 1 23 -3 27 -26 28 -16 0 -22 3 -15 6 21 8 62 -6 62 -23 0 -8 5 -12 10
-9 6 4 7 11 4 17 -7 10 42 7 119 -8 16 -3 27 -1 27 5 0 6 -12 11 -27 11 -39 0
-77 12 -64 19 5 4 12 45 15 91 3 47 9 109 12 138 5 38 3 52 -6 52 -7 0 -10 -7
-6 -17 4 -9 1 -20 -6 -25 -10 -6 -10 -8 0 -8 6 0 12 -4 12 -10 0 -5 -7 -10
-15 -10 -10 0 -14 10 -12 38 2 31 -1 37 -18 37 -18 0 -21 -11 -32 -130 -6 -71
-12 -137 -12 -144 -1 -10 -4 -12 -11 -5 -7 7 -7 39 -1 100 6 49 11 113 12 142
l3 54 60 -7 c34 -4 63 -10 66 -14 3 -3 23 -3 45 0 34 5 26 13 -12 12 -7 -1
-13 8 -13 18 0 11 5 19 11 19 5 0 7 -6 3 -12 -5 -9 -2 -9 9 1 15 12 17 11 18
-5 0 -11 3 -14 5 -7 3 7 12 9 20 6 7 -3 11 -10 7 -16 -4 -6 -1 -7 6 -2 9 5 12
38 10 115 -3 97 -5 109 -22 114 -11 2 -30 0 -44 -5 -22 -8 -24 -14 -22 -54 2
-24 0 -47 -4 -51 -4 -4 -7 -26 -7 -48 0 -50 -12 -73 -27 -54 -13 18 -14 58 -1
58 6 0 3 9 -6 19 -17 18 -17 19 1 24 17 5 17 5 0 6 -10 0 -17 7 -14 14 2 6 13
11 23 9 16 -2 15 1 -6 17 l-25 21 23 0 c18 0 22 6 22 30 0 23 -4 30 -20 30
-11 0 -20 -5 -20 -10 0 -7 -7 -7 -20 0 -26 14 -27 11 -34 -115 -5 -71 -3 -95
4 -83 12 20 36 14 50 -11 8 -15 4 -17 -33 -11 l-42 5 3 118 c3 128 6 123 -57
111 -29 -6 -31 -9 -31 -49 0 -66 -12 -165 -20 -160 -3 2 -4 53 -2 113 4 97 2
110 -13 116 -24 9 -27 3 -15 -28 12 -33 13 -86 2 -86 -5 0 -17 -18 -28 -39
-12 -25 -22 -35 -26 -28 -5 7 -8 0 -8 -15 0 -16 -4 -28 -10 -28 -5 0 -10 8
-10 18 0 11 -3 13 -8 5 -4 -6 -19 -9 -34 -6 -15 3 -26 8 -24 12 3 4 1 13 -4
21 -7 12 -11 10 -18 -9 -8 -21 -9 -22 -23 -5 -12 16 -12 17 1 9 12 -6 12 -5 3
5 -6 7 -9 18 -7 25 3 7 1 16 -5 20 -7 4 -8 0 -4 -11 6 -15 4 -15 -20 1 -15 9
-27 26 -27 36 0 10 -4 21 -10 24 -6 4 -10 -17 -10 -56 0 -64 -7 -75 -15 -23
-10 62 -13 69 -28 66 -9 -1 -21 7 -27 18 -20 37 -30 21 -31 -47 0 -38 -3 -62
-6 -55 -2 6 -12 12 -21 13 -11 0 -12 2 -4 6 7 3 12 23 12 48 0 50 -8 77 -21
69 -5 -3 -9 4 -9 16 0 12 5 18 10 15 6 -4 9 8 8 29 -3 35 -4 36 -42 36 l-38 0
6 -87 c4 -49 9 -101 13 -117 3 -19 2 -26 -6 -22 -6 4 -11 22 -11 39 0 18 -4
38 -9 46 -7 11 -13 8 -28 -16 -11 -19 -25 -29 -36 -27 -14 2 -18 -2 -14 -16 3
-13 0 -17 -9 -13 -7 2 -16 26 -19 51 -16 123 -15 120 -51 137 -31 14 -39 25
-35 48 0 4 -3 7 -9 7 -5 0 -7 -12 -5 -27 22 -123 31 -212 20 -202 -2 3 -14 55
-26 117 l-22 112 -34 6 c-19 4 -37 4 -40 0 -5 -5 12 -107 34 -206 4 -17 2 -22
-5 -15 -5 6 -20 55 -32 110 -21 93 -40 142 -40 103 0 -9 -8 -24 -17 -33 -16
-16 -17 -16 -30 1 -17 24 -17 16 7 -78 12 -44 19 -85 17 -92 -4 -9 -16 25 -56
164 -7 24 -74 70 -85 59 -3 -3 6 -47 20 -98 14 -51 23 -98 21 -104 -3 -10 -31
71 -64 187 -4 15 -7 14 -23 -12 -10 -16 -23 -31 -29 -33 -7 -3 -5 -26 8 -72
28 -98 8 -73 -24 31 -45 142 -45 142 -42 104 1 -18 -4 -36 -11 -41 -20 -12 -4
-61 19 -61 10 0 19 -4 19 -9 0 -6 -11 -6 -29 0 -34 12 -50 54 -27 73 18 14 10
76 -10 76 -11 0 -13 -10 -9 -42 4 -32 3 -38 -4 -23 -16 34 -12 1 7 -56 11 -30
22 -67 26 -83 6 -25 5 -28 -7 -17 -8 6 -18 27 -21 46 -4 19 -11 35 -16 35 -6
0 -9 3 -9 8 1 4 0 9 -1 12 -1 3 -3 12 -5 20 -2 8 -13 36 -25 63 -18 40 -25 47
-50 47 l-29 0 38 -113 c29 -85 35 -114 25 -114 -8 0 -14 7 -14 16 0 9 -9 41
-21 71 -12 30 -23 66 -26 80 -2 14 -8 26 -13 28 -5 2 -7 9 -4 16 3 8 -2 16
-10 19 -11 4 -6 -19 19 -91z m275 -48 c0 -8 -4 -12 -10 -9 -5 3 -10 10 -10 16
0 5 5 9 10 9 6 0 10 -7 10 -16z m-230 -74 c0 -5 -5 -10 -11 -10 -5 0 -7 5 -4
10 3 6 8 10 11 10 2 0 4 -4 4 -10z m1510 -10 c0 -5 -5 -10 -11 -10 -5 0 -7 5
-4 10 3 6 8 10 11 10 2 0 4 -4 4 -10z m-1290 -44 c47 -8 70 -14 52 -15 -27 -1
-32 -4 -28 -18 50 -169 75 -267 70 -272 -3 -3 -14 4 -24 16 -14 18 -19 20 -24
8 -9 -23 -36 -18 -37 8 l-2 22 -4 -22 c-2 -13 -9 -23 -14 -23 -15 0 -28 43
-17 58 8 8 6 12 -4 12 -18 0 -50 96 -42 126 3 12 0 33 -7 45 -13 24 -15 30
-18 48 0 5 -11 12 -23 14 -55 11 43 5 122 -7z m657 -28 c-3 -7 -5 -2 -5 12 0
14 2 19 5 13 2 -7 2 -19 0 -25z m92 -29 c8 -24 7 -29 -5 -29 -25 0 -44 26 -44
61 0 31 1 32 19 15 11 -10 24 -31 30 -47z m-610 34 l-25 -4 31 -112 c41 -142
50 -185 37 -172 -5 6 -24 64 -41 130 -18 66 -36 130 -41 143 -9 21 -7 22 28
21 27 -2 30 -3 11 -6z m89 -10 c-10 -2 -18 -7 -18 -9 0 -3 14 -60 30 -127 41
-166 40 -161 30 -151 -5 5 -23 66 -40 134 -17 69 -35 133 -40 143 -9 15 -6 17
22 16 18 -1 25 -3 16 -6z m106 -148 c16 -80 26 -148 23 -151 -7 -7 -13 13 -37
136 -29 151 -28 148 -48 153 -11 3 -9 5 8 6 24 1 26 -3 54 -144z m61 126 c3
-6 14 -61 25 -123 11 -62 22 -125 25 -140 2 -16 1 -28 -3 -28 -9 0 -52 218
-52 262 0 24 -4 27 -37 31 l-38 4 37 1 c20 1 39 -2 43 -7z m154 -17 c2 -2 -8
-4 -22 -4 -32 0 -33 -5 -12 -140 8 -52 14 -106 14 -120 -1 -49 -16 11 -33 135
-10 66 -21 123 -24 127 -4 3 -18 8 -32 11 -14 2 4 2 40 -1 36 -2 67 -6 69 -8z
m64 -12 c-9 -6 -9 -36 2 -137 17 -154 18 -162 6 -150 -4 6 -14 71 -21 145 -7
74 -18 138 -24 142 -6 4 3 8 19 8 18 0 25 -3 18 -8z m156 -18 c2 -2 -13 -4
-33 -4 l-38 0 6 -112 c4 -62 9 -125 12 -140 3 -16 1 -28 -4 -28 -9 0 -29 152
-23 174 1 5 -4 13 -11 18 -9 5 -10 11 -3 16 6 4 10 13 9 20 -1 6 -2 23 -3 36
-1 17 -8 26 -23 29 -13 3 6 3 42 0 36 -3 67 -7 69 -9z m596 -6 c6 -4 2 -8 -7
-8 -10 0 -18 7 -18 17 0 9 3 12 8 7 4 -5 12 -12 17 -16z m-540 -5 l-30 -4 2
-142 c1 -101 -1 -129 -7 -97 -5 25 -9 91 -9 148 l-1 102 38 -2 c33 -1 34 -2 7
-5z m89 -10 c-19 -4 -20 -12 -23 -137 l-2 -134 40 0 41 -1 0 77 c0 42 3 100 6
129 6 44 4 52 -12 56 -14 3 -11 5 8 6 l27 1 -5 -67 c-2 -38 -6 -104 -7 -148
-3 -80 -3 -80 -32 -83 -15 -2 -39 2 -51 9 -22 11 -23 18 -26 155 l-3 144 30
-1 c20 -1 23 -3 9 -6z m245 -29 c2 -2 -9 -4 -26 -4 -35 0 -34 4 -49 -203 -3
-50 -10 -85 -15 -81 -5 3 -7 20 -5 37 3 18 8 82 11 144 l6 112 -28 4 c-15 2 1
2 37 -1 36 -2 67 -6 69 -8z m-413 -29 c-8 -9 -13 -22 -10 -30 4 -8 1 -15 -4
-15 -17 0 -19 34 -2 47 22 18 34 16 16 -2z m509 -104 c-8 -14 -35 -14 -35 0 0
5 4 8 9 4 5 -3 13 0 16 6 4 5 9 8 12 5 3 -2 2 -9 -2 -15z m-1092 -48 c-7 -2
-21 -2 -30 0 -10 3 -4 5 12 5 17 0 24 -2 18 -5z m60 -11 c-21 -7 -21 -7 18
-132 21 -69 38 -127 38 -130 0 -21 -41 81 -59 150 -13 47 -27 93 -32 103 -7
15 -4 17 24 16 26 -1 29 -2 11 -7z m85 -9 c-10 -2 -18 -9 -18 -14 0 -13 60
-230 67 -243 4 -7 3 -8 -4 -1 -16 16 -41 88 -59 167 -9 40 -21 79 -26 86 -8 9
-2 12 23 11 19 -1 26 -3 17 -6z m75 -11 c-10 -6 -6 -36 17 -132 17 -67 29
-125 27 -127 -6 -5 -43 121 -57 194 -8 42 -18 63 -29 66 -9 3 0 5 19 6 21 0
30 -3 23 -7z m71 -19 c2 -10 12 -58 21 -108 9 -49 20 -103 26 -120 12 -38 -4
-20 -18 20 -6 17 -14 39 -18 50 -5 11 -9 37 -11 59 -5 79 -14 105 -37 109 -19
4 -18 4 5 6 18 1 28 -5 32 -16z m216 7 c0 -5 -5 -10 -11 -10 -5 0 -7 5 -4 10
3 6 8 10 11 10 2 0 4 -4 4 -10z m-113 -130 c22 -126 24 -171 2 -86 -8 31 -17
46 -28 46 -13 0 -13 2 -2 9 10 6 12 22 6 62 -10 80 -13 87 -43 92 -19 4 -17 4
8 3 l35 -1 22 -125z m36 113 c-7 -2 -21 -2 -30 0 -10 3 -4 5 12 5 17 0 24 -2
18 -5z m73 -95 c0 -61 -2 -81 -7 -58 -6 34 -6 34 -7 5 -1 -16 3 -49 7 -73 5
-25 5 -40 0 -35 -5 5 -17 64 -27 131 l-18 122 26 0 27 0 -1 -92z m-656 70 c0
-7 -4 -19 -9 -26 -6 -11 -9 -9 -14 7 -2 11 -2 22 1 25 10 10 22 6 22 -6z m722
3 c-11 -7 -12 -29 -2 -121 6 -62 9 -114 7 -117 -8 -7 -27 120 -27 173 0 28 -5
55 -12 62 -9 9 -5 12 18 12 19 0 25 -3 16 -9z m77 -93 c1 -51 3 -113 6 -138
l4 -45 -11 48 c-6 26 -15 47 -19 47 -4 0 -5 38 -2 84 5 77 4 84 -13 89 -14 3
-12 5 7 6 l26 1 2 -92z m-589 3 c0 -5 -7 -11 -15 -15 -8 -3 -15 -1 -15 3 0 5
-3 17 -7 26 -5 15 -3 16 15 6 12 -7 22 -16 22 -20z m617 -73 c-3 -7 -5 -2 -5
12 0 14 2 19 5 13 2 -7 2 -19 0 -25z m27 -14 c3 -8 2 -12 -4 -9 -6 3 -10 10
-10 16 0 14 7 11 14 -7z m433 -160 c-3 -3 -12 -4 -19 -1 -8 3 -5 6 6 6 11 1
17 -2 13 -5z"/>
<path d="M1511 1445 c-1 -5 10 -44 24 -85 14 -41 22 -61 19 -44 -4 25 -1 32
20 42 19 8 26 8 30 -1 10 -25 6 21 -5 52 -9 25 -16 31 -40 31 -22 0 -27 -4
-23 -17 3 -10 -2 -7 -10 7 -8 14 -15 21 -15 15z"/>
<path d="M1571 1344 c-1 -6 6 -33 14 -59 14 -49 12 -72 -5 -45 -12 18 -12 2 0
-25 5 -11 9 -14 9 -7 1 19 21 14 21 -5 0 -10 5 -25 10 -33 7 -11 8 -5 4 20 -4
23 -3 31 4 22 7 -11 11 -10 16 4 4 11 2 20 -3 22 -6 2 -9 8 -6 13 7 10 -14 93
-21 86 -3 -2 -1 -23 4 -45 5 -22 6 -46 1 -53 -7 -11 -9 -9 -9 6 -1 22 -39 117
-39 99z"/>
<path d="M2233 990 c0 -30 2 -43 4 -27 2 15 2 39 0 55 -2 15 -4 2 -4 -28z"/>
<path d="M2868 1683 c3 -18 11 -23 33 -23 26 0 28 2 17 19 -6 11 -21 21 -33
23 -18 4 -21 1 -17 -19z"/>
<path d="M3392 1689 c2 -20 -3 -26 -32 -36 l-35 -12 35 6 c19 3 53 12 75 19
l40 14 -37 -6 c-30 -4 -37 -2 -32 10 3 7 0 17 -6 21 -8 5 -11 -1 -8 -16z"/>
<path d="M3495 1690 c-13 -5 -14 -9 -5 -9 8 0 24 4 35 9 13 5 14 9 5 9 -8 0
-24 -4 -35 -9z"/>
<path d="M3585 1690 c-13 -5 -14 -9 -5 -9 8 0 24 4 35 9 13 5 14 9 5 9 -8 0
-24 -4 -35 -9z"/>
<path d="M3689 1674 c-5 -15 -8 -29 -5 -31 2 -2 8 10 14 26 13 38 5 41 -9 5z"/>
<path d="M3607 1671 c-13 -5 -30 -40 -52 -111 -19 -57 -33 -105 -32 -107 2 -1
19 35 38 80 20 45 40 81 46 80 5 -1 15 14 21 33 11 35 9 37 -21 25z"/>
<path d="M1544 1657 c3 -10 6 -26 6 -35 0 -15 2 -15 10 -2 5 8 10 11 11 5 0
-5 4 -1 8 10 10 24 2 43 -10 24 -8 -12 -11 -11 -20 1 -9 13 -10 12 -5 -3z"/>
<path d="M3508 1663 c7 -3 16 -2 19 1 4 3 -2 6 -13 5 -11 0 -14 -3 -6 -6z"/>
<path d="M3445 1650 c-13 -5 -14 -9 -5 -9 8 0 24 4 35 9 13 5 14 9 5 9 -8 0
-24 -4 -35 -9z"/>
<path d="M3528 1647 c-7 -8 -24 -51 -37 -96 -20 -70 -22 -84 -10 -93 11 -8 10
-9 -3 -4 -11 3 -18 0 -18 -8 0 -8 6 -16 12 -18 7 -3 2 -7 -10 -10 -12 -4 -22
-3 -22 2 0 4 13 54 30 111 16 56 28 105 25 107 -7 8 -45 -10 -40 -19 4 -5 2
-9 -3 -9 -5 0 -15 -28 -22 -62 -7 -35 -17 -71 -21 -80 -7 -12 -4 -18 9 -21 15
-4 15 -5 0 -6 -9 0 -21 -13 -26 -28 l-10 -28 -1 25 c-1 14 11 66 25 114 14 49
23 91 20 94 -3 3 -17 0 -30 -6 -19 -8 -27 -23 -36 -69 -6 -32 -16 -72 -21 -90
-9 -27 -7 -35 12 -54 18 -18 25 -20 48 -9 14 7 37 14 51 17 39 7 47 19 80 123
17 55 33 106 36 115 8 19 -19 20 -38 2z m12 -41 c0 -3 -4 -8 -10 -11 -5 -3
-10 -1 -10 4 0 6 5 11 10 11 6 0 10 -2 10 -4z m-19 -59 c-6 -6 -11 -19 -11
-29 0 -10 -5 -18 -10 -18 -6 0 -4 15 5 36 8 20 15 39 16 43 0 3 3 0 6 -7 3 -8
0 -19 -6 -25z"/>
<path d="M3265 1625 c-40 -14 -40 -14 -5 -8 19 3 42 9 50 14 22 12 1 9 -45 -6z"/>
<path d="M3375 1630 c-13 -5 -14 -9 -5 -9 8 0 24 4 35 9 13 5 14 9 5 9 -8 0
-24 -4 -35 -9z"/>
<path d="M2117 1588 c-18 -19 -33 -28 -44 -24 -13 5 -15 1 -9 -25 3 -17 6 -46
6 -63 1 -26 2 -28 11 -13 5 9 19 17 29 17 11 0 23 8 28 18 7 15 16 124 10 121
-2 -1 -16 -15 -31 -31z"/>
<path d="M3290 1605 c-19 -7 -28 -13 -20 -13 8 0 31 6 50 13 19 7 28 13 20 13
-8 0 -31 -6 -50 -13z"/>
<path d="M2280 1587 c0 -9 13 -11 41 -9 47 5 47 7 -3 15 -26 4 -38 2 -38 -6z"/>
<path d="M3168 1593 c7 -3 16 -2 19 1 4 3 -2 6 -13 5 -11 0 -14 -3 -6 -6z"/>
<path d="M3323 1593 c-18 -4 -23 -15 -34 -75 -12 -66 -11 -71 7 -85 18 -13 19
-11 26 29 3 24 13 64 21 91 8 26 12 46 9 46 -4 -1 -17 -4 -29 -6z"/>
<path d="M2396 1579 c2 -4 -2 -10 -8 -12 -7 -3 -1 -6 14 -6 15 -1 29 -5 33
-11 8 -12 35 -1 35 15 0 8 -16 14 -39 17 -22 2 -37 0 -35 -3z"/>
<path d="M3105 1580 c-13 -5 -14 -9 -5 -9 8 0 24 4 35 9 13 5 14 9 5 9 -8 0
-24 -4 -35 -9z"/>
<path d="M3228 1583 c7 -3 16 -2 19 1 4 3 -2 6 -13 5 -11 0 -14 -3 -6 -6z"/>
<path d="M3165 1570 c-13 -5 -14 -9 -5 -9 8 0 24 4 35 9 13 5 14 9 5 9 -8 0
-24 -4 -35 -9z"/>
<path d="M3251 1564 l-23 -12 22 -7 c25 -8 33 -3 28 17 -2 11 -8 12 -27 2z"/>
<path d="M2280 1546 c0 -8 8 -13 18 -11 9 2 27 4 40 4 40 2 23 21 -18 21 -28
0 -40 -4 -40 -14z"/>
<path d="M2490 1540 c0 -5 5 -10 11 -10 5 0 7 5 4 10 -3 6 -8 10 -11 10 -2 0
-4 -4 -4 -10z"/>
<path d="M3088 1543 c7 -3 16 -2 19 1 4 3 -2 6 -13 5 -11 0 -14 -3 -6 -6z"/>
<path d="M3165 1540 c-4 -6 6 -10 22 -10 22 0 25 2 13 10 -19 12 -27 12 -35 0z"/>
<path d="M3567 1449 c7 -7 15 -10 18 -7 3 3 -2 9 -12 12 -14 6 -15 5 -6 -5z"/>
<path d="M3300 1380 c0 -11 4 -20 9 -20 5 0 7 9 4 20 -3 11 -7 20 -9 20 -2 0
-4 -9 -4 -20z"/>
<path d="M3454 1385 c-16 -12 -17 -14 -2 -15 9 0 18 -6 21 -12 2 -7 6 -1 9 15
6 31 0 33 -28 12z"/>
<path d="M3245 1350 c-13 -5 -14 -9 -5 -9 8 0 24 4 35 9 13 5 14 9 5 9 -8 0
-24 -4 -35 -9z"/>
<path d="M3334 1343 c-4 -10 -6 -24 -5 -31 1 -8 -5 -22 -14 -32 -14 -15 -14
-18 -1 -23 9 -4 18 -1 22 5 4 7 3 8 -4 4 -7 -4 -12 -3 -12 3 0 5 5 11 10 13 6
2 12 12 14 23 2 11 7 28 11 38 4 9 3 17 -3 17 -5 0 -13 -8 -18 -17z"/>
<path d="M3394 1301 c-4 -17 -10 -34 -15 -37 -4 -2 -5 -12 -2 -22 5 -11 11 -1
19 33 7 27 11 51 9 54 -3 2 -8 -10 -11 -28z"/>
<path d="M3271 1264 c0 -11 3 -14 6 -6 3 7 2 16 -1 19 -3 4 -6 -2 -5 -13z"/>
<path d="M3428 1273 c-16 -4 -34 -33 -20 -33 12 0 48 28 42 32 -3 3 -12 3 -22
1z"/>
<path d="M2920 1253 c0 -7 -7 -13 -15 -13 -8 0 -15 -7 -15 -15 0 -8 7 -15 15
-15 8 0 15 -4 15 -10 0 -5 -7 -10 -15 -10 -8 0 -15 -4 -15 -9 0 -5 7 -11 15
-15 8 -3 15 -10 15 -17 0 -6 -7 -9 -15 -6 -8 4 -17 2 -20 -3 -4 -6 3 -10 14
-10 12 0 21 -4 21 -10 0 -10 -12 -13 -27 -7 -9 2 -20 -44 -22 -89 -1 -29 2
-31 54 -44 30 -7 58 -10 62 -6 4 4 6 23 5 44 -5 110 -10 140 -28 171 -39 69
-44 76 -44 64z m-11 -213 c0 -10 -3 -8 -9 5 -12 27 -12 43 0 25 5 -8 9 -22 9
-30z"/>
<path d="M3261 1214 c0 -11 3 -14 6 -6 3 7 2 16 -1 19 -3 4 -6 -2 -5 -13z"/>
<path d="M3287 1214 c-4 -4 -7 -19 -7 -33 1 -23 2 -24 11 -8 6 9 14 15 19 12
4 -3 7 3 6 12 -3 19 -18 27 -29 17z"/>
<path d="M3251 1174 c0 -11 3 -14 6 -6 3 7 2 16 -1 19 -3 4 -6 -2 -5 -13z"/>
<path d="M3440 1178 c0 -4 6 -8 14 -8 8 0 17 4 20 8 2 4 -4 8 -15 8 -10 0 -19
-4 -19 -8z"/>
<path d="M3236 1113 c-4 -21 -9 -46 -12 -55 -3 -10 -1 -18 4 -18 5 0 9 6 9 13
0 6 3 31 7 55 4 23 6 42 3 42 -3 0 -8 -17 -11 -37z"/>
<path d="M3400 1131 c0 -11 4 -22 9 -25 4 -3 6 6 3 19 -5 30 -12 33 -12 6z"/>
<path d="M2996 1107 c-5 -15 -6 -31 -2 -34 11 -11 18 5 14 34 l-4 28 -8 -28z"/>
<path d="M1611 1115 c1 -19 18 -51 18 -35 0 8 -4 22 -9 30 -5 8 -9 11 -9 5z"/>
<path d="M3052 1060 l1 -65 7 50 c4 28 3 57 -1 65 -5 9 -8 -11 -7 -50z"/>
<path d="M3118 1114 c-5 -4 -8 -21 -7 -38 0 -30 0 -30 10 -7 11 27 8 57 -3 45z"/>
<path d="M3170 1087 c0 -24 -7 -44 -21 -58 l-21 -21 24 7 c12 4 24 8 25 9 5 4
6 87 0 92 -4 4 -7 -9 -7 -29z"/>
<path d="M3340 1095 c0 -8 4 -15 10 -15 5 0 7 7 4 15 -4 8 -8 15 -10 15 -2 0
-4 -7 -4 -15z"/>
<path d="M3141 1064 c0 -11 3 -14 6 -6 3 7 2 16 -1 19 -3 4 -6 -2 -5 -13z"/>
<path d="M3018 1020 c-11 -38 -10 -56 3 -43 6 6 9 23 7 39 l-3 29 -7 -25z"/>
<path d="M3100 1021 c-8 -6 -17 -8 -20 -6 -4 2 -7 -2 -7 -10 0 -10 4 -12 12
-5 7 5 14 7 17 4 3 -2 8 2 11 11 7 17 7 18 -13 6z"/>
<path d="M3154 995 c-3 -8 -4 -20 -2 -27 3 -7 7 -1 10 15 6 29 1 36 -8 12z"/>
<path d="M3201 994 c0 -11 3 -14 6 -6 3 7 2 16 -1 19 -3 4 -6 -2 -5 -13z"/>
<path d="M3100 982 c0 -6 -6 -9 -14 -6 -8 3 -17 1 -20 -4 -3 -5 3 -12 13 -15
19 -5 38 19 26 31 -3 3 -5 0 -5 -6z"/>
<path d="M3024 962 c-21 -13 -25 -50 -10 -79 l15 -28 0 25 c-1 14 4 40 9 58
11 32 7 38 -14 24z"/>
<path d="M2798 923 c7 -3 16 -2 19 1 4 3 -2 6 -13 5 -11 0 -14 -3 -6 -6z"/>
<path d="M3060 920 c0 -5 5 -10 10 -10 6 0 10 5 10 10 0 6 -4 10 -10 10 -5 0
-10 -4 -10 -10z"/>
<path d="M3326 904 c-4 -14 -5 -28 -3 -31 3 -2 8 8 11 23 4 14 5 28 3 31 -3 2
-8 -8 -11 -23z"/>
<path d="M2872 890 c14 -22 24 -19 15 5 -4 8 -11 15 -17 15 -6 0 -6 -7 2 -20z"/>
<path d="M2782 884 c10 -10 20 -16 22 -13 3 3 -5 11 -17 18 -21 13 -21 12 -5
-5z"/>
<path d="M3370 882 c0 -7 -8 -12 -17 -12 -14 0 -15 -2 -4 -9 15 -10 7 -31 -13
-31 -8 0 -16 -9 -19 -20 -6 -25 -2 -25 23 -2 20 19 44 72 35 80 -3 3 -5 0 -5
-6z"/>
<path d="M3393 854 c-12 -19 -18 -34 -13 -34 9 0 44 59 38 65 -2 1 -13 -13
-25 -31z"/>
<path d="M3071 864 c0 -11 3 -14 6 -6 3 7 2 16 -1 19 -3 4 -6 -2 -5 -13z"/>
<path d="M3113 840 c-3 -11 -9 -20 -13 -20 -4 0 -10 -18 -14 -39 -3 -22 -9
-46 -12 -55 -5 -12 -2 -15 9 -10 18 6 33 48 40 107 5 39 -1 50 -10 17z"/>
<path d="M3300 850 c-8 -6 -10 -10 -5 -10 6 0 6 -3 0 -8 -6 -4 -16 -20 -24
-37 l-13 -30 22 20 c21 19 45 64 37 71 -1 2 -9 -1 -17 -6z"/>
<path d="M3207 833 c-4 -3 -7 -11 -7 -17 0 -6 5 -5 12 2 6 6 9 14 7 17 -3 3
-9 2 -12 -2z"/>
<path d="M3248 819 c-9 -10 -22 -27 -28 -39 -17 -31 7 -22 33 12 23 31 19 51
-5 27z"/>
<path d="M3134 793 c-4 -21 -11 -46 -16 -55 -5 -10 -5 -18 0 -18 14 0 38 33
51 69 14 43 14 41 -9 41 -14 0 -21 -9 -26 -37z"/>
<path d="M2816 807 c3 -10 9 -15 12 -12 3 3 0 11 -7 18 -10 9 -11 8 -5 -6z"/>
<path d="M2790 804 c1 -13 29 -48 34 -43 2 2 -4 15 -15 28 -10 13 -19 19 -19
15z"/>
<path d="M2850 805 c0 -2 9 -9 20 -15 15 -8 25 -8 38 0 11 8 12 10 2 7 -8 -2
-25 0 -37 4 -13 5 -23 7 -23 4z"/>
<path d="M2996 784 c-3 -9 -4 -20 0 -25 3 -5 1 -9 -4 -9 -5 0 -14 -18 -20 -40
-5 -22 -6 -40 -2 -40 13 0 32 29 25 40 -3 5 -2 10 4 10 5 0 9 18 8 40 -1 45
-2 47 -11 24z"/>
<path d="M3048 783 c-18 -20 -40 -93 -29 -93 17 0 42 39 48 74 6 40 3 44 -19
19z"/>
<path d="M3180 781 c-17 -33 -11 -48 10 -22 11 13 20 27 20 32 0 16 -19 9 -30
-10z"/>
<path d="M2850 769 c0 -13 51 -19 70 -9 11 6 20 12 20 13 0 1 -20 2 -45 2 -25
0 -45 -3 -45 -6z"/>
<path d="M2936 749 c-10 -6 -37 -9 -59 -6 -27 4 -36 2 -26 -4 22 -14 73 -11
95 6 22 17 17 19 -10 4z"/>
</g>
</svg>
